<?xml version="1.0"?>
<svg xmlns="http://www.w3.org/2000/svg" id="Flat" height="512px" viewBox="0 0 512 512" width="512px" class=""><g><g fill="#e74444"><path d="m400 184v-16h-32v16l-7.991 287.484a16.168 16.168 0 0 0 16.349 16.516h15.285a16.168 16.168 0 0 0 16.348-16.516z" data-original="#E74444" class="" style="fill:#A04835" data-old_color="#E74444"/><path d="m88 176-7.991 295.484a16.168 16.168 0 0 0 16.349 16.516h15.284a16.168 16.168 0 0 0 16.349-16.516l-7.991-295.484z" data-original="#E74444" class="" style="fill:#A04835" data-old_color="#E74444"/><path d="m232 240-7.991 231.484a16.168 16.168 0 0 0 16.349 16.516h15.285a16.168 16.168 0 0 0 16.348-16.516l-7.991-231.484z" data-original="#E74444" class="" style="fill:#A04835" data-old_color="#E74444"/></g><path d="m135.471 24.017a8.18 8.18 0 0 0 -7.471 8.255v79.728h-16v-79.726a8.183 8.183 0 0 0 -7.468-8.257 8 8 0 0 0 -8.532 7.983v80h-16v-79.728a8.18 8.18 0 0 0 -7.471-8.255 8 8 0 0 0 -8.529 7.983v101.333a32 32 0 0 0 6.4 19.2l17.6 23.467h32l17.6-23.467a32 32 0 0 0 6.4-19.2v-101.333a8 8 0 0 0 -8.529-7.983z" fill="#cfd1d3" data-original="#CFD1D3" class="active-path" style="fill:#C4C4C4" data-old_color="#cfd1d3"/><ellipse cx="384" cy="104" fill="#cfd1d3" rx="56" ry="80" data-original="#CFD1D3" class="active-path" style="fill:#C4C4C4" data-old_color="#cfd1d3"/><path d="m232 240v-24l-32-8s8-184 64-184v216z" fill="#cfd1d3" data-original="#CFD1D3" class="active-path" style="fill:#C4C4C4" data-old_color="#cfd1d3"/></g> </svg>
